<svg xmlns="http://www.w3.org/2000/svg" version="1.1" xmlns:xlink="http://www.w3.org/1999/xlink" xmlns:svgjs="http://svgjs.dev/svgjs" width="1000" height="750" viewBox="0 0 1000 750"><rect width="1000" height="750" fill="#ed1703"></rect><g transform="matrix(0.3659147869674185,0,0,0.3659147869674185,317.09736561399984,82.46179531705991)"><svg viewBox="0 0 161 257" data-background-color="#ed1703" preserveAspectRatio="xMidYMid meet" height="1596" width="1000" xmlns="http://www.w3.org/2000/svg" xmlns:xlink="http://www.w3.org/1999/xlink"><g id="tight-bounds" transform="matrix(1,0,0,1,-0.0240936279296875,0.236846923828125)"><svg viewBox="0 0 161.04818725585938 256.52630615234375" height="256.52630615234375" width="161.04818725585938"><g><svg></svg></g><g><svg viewBox="0 0 161.04818725585938 256.52630615234375" height="256.52630615234375" width="161.04818725585938"><g transform="matrix(1,0,0,1,-117.23590850830078,4.6631317138671875)"><path xmlns="http://www.w3.org/2000/svg" d="M117.236 251.863v-256.526h161.048l0 245.324h-152.703v6.539l152.703 0v4.663zM262.679 236.258v-225.316h-129.838v225.316z" fill="#ffffff" fill-rule="nonzero" stroke="none" stroke-width="1" stroke-linecap="butt" stroke-linejoin="miter" stroke-miterlimit="10" stroke-dasharray="" stroke-dashoffset="0" font-family="none" font-weight="none" font-size="none" text-anchor="none" style="mix-blend-mode: normal" data-fill-palette-color="tertiary"></path><g><path xmlns="http://www.w3.org/2000/svg" d="M173.66 245.59h-1.243l-0.021-0.296 0.36-0.099 1.44-3.603 0.475-0.275 1.566 3.878 0.355 0.099-0.022 0.296h-1.575l-0.015-0.296 0.439-0.099-0.41-1.011-0.078-0.225-0.748-1.836 0.177-0.043-0.686 1.871-0.078 0.213-0.36 1.031 0.438 0.099zM173.449 244.319v0-0.41c0.09 0.005 0.205 0.011 0.345 0.018 0.142 0.007 0.321 0.01 0.537 0.01v0c0.212 0 0.391-0.003 0.537-0.01 0.147-0.007 0.262-0.013 0.345-0.018v0 0.402c-0.136 0-0.278-0.002-0.426-0.007-0.148-0.005-0.3-0.007-0.456-0.007v0c-0.155 0-0.305 0.002-0.448 0.007-0.144 0.005-0.288 0.01-0.434 0.015zM177.947 245.647v0c-0.178 0-0.358-0.021-0.54-0.064-0.181-0.042-0.336-0.096-0.462-0.162v0l-0.037-0.784h0.382l0.142 0.508c0.165 0.114 0.353 0.171 0.564 0.17v0c0.155 0 0.279-0.037 0.372-0.11 0.092-0.073 0.137-0.169 0.137-0.286v0c0-0.118-0.043-0.22-0.13-0.307-0.088-0.088-0.261-0.183-0.519-0.286v0c-0.339-0.137-0.578-0.276-0.715-0.417-0.136-0.142-0.204-0.321-0.204-0.536v0c0-0.175 0.054-0.329 0.162-0.463 0.108-0.134 0.257-0.24 0.446-0.318 0.188-0.077 0.407-0.116 0.657-0.116v0c0.137 0 0.276 0.012 0.416 0.035 0.141 0.024 0.261 0.057 0.36 0.098v0l0.078 0.764h-0.367l-0.169-0.48c-0.047-0.029-0.104-0.052-0.171-0.068-0.066-0.016-0.134-0.025-0.204-0.025v0c-0.16 0-0.288 0.037-0.385 0.11-0.096 0.073-0.145 0.166-0.144 0.279v0c0 0.127 0.054 0.233 0.162 0.318 0.108 0.084 0.298 0.187 0.571 0.31v0c0.311 0.137 0.531 0.275 0.658 0.414 0.126 0.139 0.189 0.31 0.19 0.512v0c0 0.263-0.116 0.48-0.349 0.649-0.233 0.17-0.534 0.255-0.901 0.255zM181.316 247.144h-1.709l-0.021-0.275 0.438-0.113c0-0.024 0.002-0.068 0.007-0.132 0.004-0.064 0.007-0.147 0.01-0.25 0.002-0.103 0.004-0.226 0.008-0.367 0.002-0.141 0.003-0.301 0.002-0.481v0l0.015-1.631c0-0.141-0.005-0.28-0.015-0.417-0.01-0.137-0.024-0.252-0.041-0.345v0l-0.453-0.1v-0.26l1.046-0.284 0.149 0.114-0.051 0.402 0.022 0.008c0.127-0.17 0.271-0.302 0.431-0.397 0.16-0.094 0.334-0.14 0.522-0.14v0c0.25 0 0.473 0.062 0.671 0.187 0.198 0.124 0.355 0.298 0.473 0.522 0.118 0.224 0.176 0.484 0.176 0.781v0c0 0.31-0.07 0.592-0.211 0.843-0.142 0.253-0.336 0.454-0.583 0.605-0.247 0.15-0.533 0.226-0.857 0.225v0c-0.099 0-0.204-0.009-0.316-0.027-0.11-0.019-0.21-0.048-0.299-0.086v0 0.502c0 0.174 0.003 0.326 0.01 0.459 0.008 0.132 0.013 0.222 0.017 0.269v0l0.58 0.098zM181.365 245.244v0c0.179 0 0.335-0.042 0.467-0.127 0.131-0.085 0.235-0.211 0.311-0.377 0.075-0.168 0.115-0.372 0.12-0.612v0c0.004-0.23-0.033-0.429-0.11-0.596-0.078-0.168-0.181-0.296-0.308-0.385-0.126-0.09-0.27-0.135-0.43-0.134v0c-0.137 0-0.263 0.03-0.379 0.091-0.115 0.062-0.217 0.151-0.306 0.269v0 1.673c0.08 0.061 0.176 0.109 0.289 0.145 0.113 0.036 0.228 0.054 0.346 0.053zM185.088 245.59h-1.646l-0.022-0.282 0.473-0.107c0.005-0.018 0.01-0.054 0.015-0.108 0.005-0.054 0.009-0.132 0.011-0.233 0.002-0.101 0.003-0.232 0.003-0.392v0l0.007-0.502c0-0.175-0.005-0.334-0.014-0.478-0.01-0.144-0.024-0.262-0.042-0.355v0l-0.473-0.1v-0.26l1.101-0.284 0.134 0.107c-0.013 0.146-0.024 0.291-0.032 0.437-0.007 0.147-0.01 0.316-0.01 0.509v0 0.89c0 0.193 0.003 0.36 0.01 0.501 0.008 0.141 0.018 0.23 0.032 0.268v0l0.473 0.107zM184.268 241.763v0c-0.141 0-0.257-0.045-0.349-0.135-0.093-0.09-0.139-0.201-0.139-0.332v0c0-0.127 0.046-0.237 0.139-0.329 0.092-0.092 0.208-0.137 0.349-0.137v0c0.142 0 0.256 0.046 0.343 0.137 0.087 0.092 0.13 0.201 0.13 0.329v0c0 0.132-0.043 0.243-0.13 0.332-0.087 0.09-0.201 0.135-0.343 0.135zM187.192 245.59h-1.758l-0.022-0.275 0.438-0.114c0.005-0.018 0.01-0.058 0.015-0.12 0.005-0.061 0.01-0.143 0.014-0.246 0.004-0.104 0.006-0.227 0.006-0.367v0-0.544c0-0.155-0.004-0.303-0.013-0.443-0.01-0.139-0.024-0.255-0.044-0.348v0l-0.451-0.1v-0.26l1.039-0.284 0.127 0.107-0.029 0.579 0.022 0.007c0.141-0.268 0.282-0.449 0.424-0.544 0.141-0.095 0.28-0.142 0.416-0.142v0c0.118 0 0.216 0.029 0.297 0.088 0.08 0.059 0.12 0.149 0.12 0.272v0c0 0.122-0.044 0.217-0.132 0.284-0.087 0.066-0.191 0.098-0.314 0.098v0c-0.095 0-0.183-0.018-0.264-0.053-0.082-0.035-0.163-0.092-0.243-0.172v0l0.14 0.034c-0.075 0.057-0.151 0.132-0.229 0.226-0.078 0.095-0.148 0.208-0.208 0.34v0l0.006 0.628c0.005 0.137 0.01 0.27 0.014 0.399 0.005 0.13 0.01 0.244 0.015 0.343 0.005 0.099 0.01 0.172 0.014 0.218v0l0.613 0.1zM189.714 245.59h-1.646l-0.021-0.282 0.473-0.107c0.005-0.018 0.009-0.054 0.013-0.108 0.005-0.054 0.009-0.132 0.012-0.233 0.002-0.101 0.003-0.232 0.003-0.392v0l0.007-0.502c0-0.175-0.005-0.334-0.014-0.478-0.009-0.144-0.023-0.262-0.042-0.355v0l-0.473-0.1v-0.26l1.102-0.284 0.133 0.107c-0.013 0.146-0.024 0.291-0.032 0.437-0.007 0.147-0.01 0.316-0.01 0.509v0 0.89c0 0.193 0.003 0.36 0.01 0.501 0.008 0.141 0.018 0.23 0.032 0.268v0l0.474 0.107zM188.893 241.763v0c-0.141 0-0.257-0.045-0.348-0.135-0.092-0.09-0.137-0.201-0.138-0.332v0c0-0.127 0.046-0.237 0.138-0.329 0.092-0.092 0.208-0.137 0.348-0.137v0c0.142 0 0.256 0.046 0.343 0.137 0.088 0.092 0.132 0.201 0.132 0.329v0c0 0.132-0.044 0.243-0.132 0.332-0.087 0.09-0.201 0.135-0.343 0.135zM191.62 245.59h-1.568l-0.02-0.275 0.437-0.114c0.005-0.023 0.01-0.064 0.014-0.123 0.005-0.059 0.008-0.138 0.01-0.237 0.003-0.098 0.004-0.223 0.005-0.373v0l0.007-0.544c0-0.155-0.005-0.303-0.015-0.443-0.01-0.139-0.024-0.255-0.042-0.348v0l-0.452-0.1v-0.26l1.045-0.284 0.148 0.114-0.042 0.388 0.022 0.007c0.16-0.179 0.323-0.311 0.487-0.395 0.165-0.085 0.341-0.127 0.529-0.127v0c0.183 0 0.352 0.046 0.508 0.137 0.156 0.092 0.283 0.23 0.379 0.414 0.096 0.183 0.145 0.414 0.145 0.691v0 0.757c0 0.164 0.003 0.315 0.01 0.454 0.007 0.139 0.015 0.23 0.024 0.272v0l0.439 0.114-0.015 0.275h-1.539l-0.021-0.275 0.409-0.114c0.01-0.038 0.017-0.088 0.022-0.152 0.005-0.063 0.008-0.14 0.01-0.233 0.003-0.092 0.004-0.194 0.004-0.306v0-0.706c0-0.198-0.033-0.357-0.1-0.477-0.066-0.12-0.149-0.207-0.25-0.262-0.101-0.054-0.208-0.081-0.321-0.081v0c-0.147 0-0.281 0.034-0.404 0.102-0.121 0.068-0.227 0.164-0.316 0.287v0 1.059c0 0.198 0.003 0.365 0.01 0.501 0.007 0.136 0.015 0.225 0.024 0.268v0l0.439 0.114zM195.483 247.2v0c-0.452 0-0.809-0.07-1.07-0.211-0.261-0.142-0.392-0.328-0.392-0.558v0c0-0.165 0.068-0.314 0.205-0.449 0.137-0.134 0.349-0.262 0.635-0.385v0l0.284 0.05c-0.142 0.09-0.253 0.191-0.333 0.303-0.08 0.113-0.12 0.235-0.12 0.368v0c0 0.175 0.074 0.311 0.223 0.409 0.148 0.099 0.352 0.149 0.61 0.149v0c0.292 0 0.53-0.063 0.715-0.188 0.183-0.124 0.275-0.283 0.275-0.476v0c0-0.147-0.053-0.256-0.159-0.328-0.106-0.073-0.286-0.12-0.54-0.139v0l-0.791-0.064-0.093-0.034c-0.193 0-0.351-0.045-0.476-0.135-0.125-0.089-0.188-0.204-0.188-0.346v0c0-0.132 0.065-0.26 0.196-0.384 0.129-0.124 0.311-0.231 0.546-0.322v0l0.099 0.141c-0.08 0.052-0.14 0.101-0.18 0.146-0.041 0.044-0.061 0.088-0.06 0.13v0c0 0.066 0.026 0.119 0.078 0.159 0.052 0.04 0.125 0.064 0.218 0.074v0l0.961 0.091c0.339 0.034 0.594 0.12 0.763 0.259 0.17 0.139 0.255 0.333 0.255 0.583v0c0 0.211-0.073 0.405-0.22 0.581-0.146 0.176-0.343 0.317-0.593 0.421-0.25 0.103-0.532 0.155-0.848 0.155zM195.532 244.728v0c-0.258 0-0.488-0.046-0.688-0.137-0.2-0.092-0.356-0.219-0.469-0.382-0.114-0.162-0.171-0.349-0.17-0.561v0c0-0.226 0.059-0.426 0.176-0.601 0.119-0.174 0.278-0.312 0.477-0.416 0.201-0.103 0.428-0.155 0.682-0.155v0c0.25 0 0.472 0.049 0.668 0.148 0.195 0.099 0.349 0.234 0.461 0.403 0.114 0.169 0.171 0.362 0.171 0.579v0c0 0.217-0.057 0.41-0.171 0.578-0.113 0.17-0.268 0.303-0.465 0.399-0.198 0.096-0.421 0.145-0.672 0.145zM195.583 244.404v0c0.174 0 0.312-0.068 0.417-0.205 0.103-0.137 0.155-0.321 0.154-0.551v0c0-0.258-0.058-0.465-0.173-0.621-0.115-0.156-0.264-0.234-0.448-0.234v0c-0.178 0-0.323 0.073-0.434 0.22-0.111 0.146-0.166 0.336-0.167 0.571v0c0 0.245 0.059 0.443 0.177 0.593 0.118 0.151 0.276 0.227 0.474 0.227zM197.257 242.547v0.486l-0.884-0.07-0.268-0.296zM200.343 245.654v0c-0.203 0-0.417-0.026-0.643-0.078-0.226-0.051-0.412-0.119-0.559-0.204v0l-0.042-0.961 0.353-0.029 0.213 0.664c0.113 0.07 0.236 0.124 0.37 0.162 0.134 0.038 0.272 0.056 0.414 0.057v0c0.226 0 0.403-0.052 0.532-0.155 0.13-0.103 0.195-0.244 0.195-0.424v0c0-0.17-0.05-0.308-0.149-0.414-0.098-0.106-0.226-0.198-0.381-0.274-0.155-0.078-0.321-0.155-0.498-0.23-0.176-0.075-0.342-0.163-0.498-0.265-0.155-0.101-0.283-0.226-0.381-0.375-0.098-0.148-0.148-0.335-0.148-0.561v0c0-0.235 0.066-0.444 0.198-0.625 0.131-0.181 0.316-0.323 0.554-0.424 0.237-0.101 0.512-0.152 0.823-0.151v0c0.118 0 0.235 0.007 0.353 0.021 0.118 0.013 0.23 0.033 0.336 0.06 0.106 0.026 0.201 0.058 0.285 0.095v0l0.063 0.933-0.353 0.027-0.204-0.627c-0.151-0.09-0.338-0.135-0.558-0.135v0c-0.226 0-0.407 0.055-0.544 0.167-0.137 0.11-0.205 0.257-0.205 0.441v0c0 0.165 0.05 0.302 0.149 0.412 0.098 0.111 0.227 0.208 0.385 0.291 0.158 0.082 0.326 0.161 0.504 0.235 0.179 0.075 0.348 0.162 0.505 0.262 0.158 0.098 0.286 0.219 0.385 0.363 0.099 0.144 0.149 0.324 0.149 0.541v0c0 0.23-0.068 0.436-0.205 0.618-0.136 0.181-0.324 0.324-0.565 0.428-0.24 0.103-0.518 0.155-0.833 0.155zM204.029 245.647v0c-0.31 0-0.584-0.067-0.822-0.202-0.238-0.134-0.423-0.32-0.555-0.558-0.132-0.237-0.198-0.509-0.198-0.816v0c0-0.325 0.074-0.606 0.222-0.843 0.148-0.238 0.344-0.423 0.588-0.555 0.242-0.131 0.507-0.197 0.794-0.197v0c0.297 0 0.557 0.066 0.779 0.197 0.224 0.132 0.399 0.315 0.527 0.548 0.127 0.233 0.191 0.503 0.191 0.808v0c0 0.301-0.068 0.574-0.206 0.819-0.136 0.245-0.319 0.439-0.549 0.583-0.231 0.144-0.488 0.216-0.771 0.216zM204.1 245.279v0c0.147 0 0.272-0.045 0.377-0.134 0.106-0.089 0.189-0.216 0.247-0.381 0.059-0.165 0.088-0.353 0.089-0.565v0c0-0.41-0.078-0.741-0.233-0.993-0.155-0.252-0.36-0.378-0.615-0.377v0c-0.226 0-0.408 0.101-0.547 0.304-0.139 0.203-0.208 0.471-0.208 0.804v0c0 0.259 0.038 0.49 0.113 0.693 0.075 0.203 0.181 0.362 0.318 0.477 0.136 0.115 0.289 0.172 0.459 0.172zM207.752 245.308l-0.022 0.282h-1.688l-0.014-0.275 0.438-0.114c0-0.051 0.001-0.106 0.003-0.165 0.003-0.059 0.004-0.131 0.004-0.215 0-0.085 0-0.188 0-0.308 0-0.12 0-0.267 0-0.442v0l-0.007-1.144v-0.755c0-0.302 0.052-0.567 0.155-0.795 0.104-0.228 0.247-0.404 0.428-0.53 0.181-0.124 0.39-0.187 0.625-0.186v0c0.203 0 0.373 0.043 0.512 0.13 0.139 0.087 0.208 0.199 0.208 0.335v0c0 0.075-0.025 0.135-0.074 0.181-0.05 0.044-0.115 0.067-0.195 0.067v0c-0.122 0-0.243-0.054-0.36-0.162v0l-0.346-0.333 0.213 0.042c-0.16 0-0.285 0.087-0.375 0.262-0.09 0.175-0.135 0.427-0.134 0.756v0 0.608l0.014 0.38 0.007 1.102c0 0.217 0.003 0.433 0.01 0.65 0.007 0.217 0.013 0.391 0.018 0.522v0zM207.899 242.935h-1.942v-0.268l0.509-0.127 0.502 0.007h0.931zM210.386 244.919l0.142 0.184c-0.08 0.17-0.204 0.303-0.372 0.399-0.167 0.096-0.342 0.145-0.527 0.145v0c-0.301 0-0.548-0.089-0.74-0.268-0.193-0.179-0.289-0.448-0.29-0.806v0l0.021-1.646h-0.495v-0.176l1.004-0.868h0.169l-0.014 0.868-0.015 1.724c0 0.226 0.051 0.392 0.152 0.5 0.101 0.108 0.246 0.162 0.435 0.162v0c0.103 0 0.2-0.02 0.29-0.059 0.09-0.041 0.17-0.094 0.24-0.159zM210.322 242.927h-1.349v-0.387h1.349zM214.313 245.619h-0.248l-1.123-2.699-0.353-0.106 0.014-0.282h1.434l0.014 0.282-0.367 0.106 0.791 2.013h-0.184l0.813-2.013-0.367-0.106 0.013-0.282h1.138l0.013 0.282-0.331 0.106zM212.201 245.619h-0.247l-1.181-2.699-0.331-0.106 0.015-0.282h1.433l0.014 0.282-0.347 0.106 0.835 2.013h-0.213l0.897-2.055 0.213 0.446zM217.172 245.647v0c-0.198 0-0.372-0.041-0.522-0.123-0.15-0.083-0.266-0.186-0.345-0.308-0.08-0.122-0.12-0.245-0.121-0.368v0c0-0.16 0.051-0.293 0.152-0.399 0.101-0.105 0.27-0.196 0.505-0.272v0l1.088-0.353v-0.324c0-0.109-0.034-0.21-0.103-0.304-0.068-0.095-0.159-0.17-0.272-0.227-0.113-0.056-0.24-0.084-0.382-0.084v0c-0.098 0-0.168 0.022-0.208 0.067-0.04 0.045-0.064 0.134-0.074 0.265v0l-0.021 0.339c-0.188 0.042-0.347 0.037-0.476-0.017-0.13-0.055-0.195-0.146-0.196-0.272v0c0-0.08 0.039-0.162 0.118-0.247 0.078-0.085 0.177-0.166 0.296-0.245 0.121-0.077 0.249-0.142 0.385-0.193 0.137-0.052 0.267-0.087 0.389-0.106v0c0.367 0 0.663 0.093 0.887 0.279 0.223 0.185 0.337 0.431 0.341 0.738v0l-0.02 1.115c0 0.104 0.003 0.197 0.01 0.279 0.007 0.083 0.02 0.146 0.039 0.188v0l0.451 0.084v0.24l-0.38 0.156c-0.071 0.028-0.137 0.05-0.198 0.067-0.061 0.016-0.115 0.025-0.162 0.025v0c-0.16 0-0.266-0.085-0.319-0.255v0l-0.092-0.297 0.121 0.015c-0.151 0.175-0.301 0.308-0.449 0.399-0.148 0.092-0.295 0.137-0.442 0.138zM217.42 245.159v0c0.095 0 0.184-0.021 0.269-0.064 0.085-0.042 0.165-0.106 0.24-0.19v0-0.728l-0.693 0.171c-0.113 0.028-0.194 0.071-0.243 0.13-0.05 0.059-0.075 0.135-0.075 0.23v0c0 0.118 0.05 0.222 0.149 0.314 0.099 0.092 0.217 0.137 0.353 0.137zM221.163 245.59h-1.759l-0.02-0.275 0.437-0.114c0.005-0.018 0.01-0.058 0.014-0.12 0.005-0.061 0.01-0.143 0.015-0.246 0.005-0.104 0.007-0.227 0.007-0.367v0-0.544c0-0.155-0.005-0.303-0.015-0.443-0.01-0.139-0.024-0.255-0.042-0.348v0l-0.452-0.1v-0.26l1.038-0.284 0.128 0.107-0.029 0.579 0.021 0.007c0.141-0.268 0.282-0.449 0.424-0.544 0.141-0.095 0.28-0.142 0.417-0.142v0c0.118 0 0.216 0.029 0.296 0.088 0.08 0.059 0.12 0.149 0.12 0.272v0c0 0.122-0.043 0.217-0.13 0.284-0.088 0.066-0.193 0.098-0.315 0.098v0c-0.094 0-0.182-0.018-0.265-0.053-0.082-0.035-0.163-0.092-0.243-0.172v0l0.142 0.034c-0.076 0.057-0.153 0.132-0.23 0.226-0.078 0.095-0.148 0.208-0.208 0.34v0l0.007 0.628c0.005 0.137 0.009 0.27 0.013 0.399 0.005 0.13 0.01 0.244 0.014 0.343 0.005 0.099 0.01 0.172 0.015 0.218v0l0.614 0.1zM223.48 245.647v0c-0.283 0-0.537-0.064-0.764-0.191-0.226-0.127-0.405-0.306-0.536-0.537-0.132-0.23-0.198-0.499-0.198-0.806v0c0-0.334 0.071-0.623 0.212-0.868 0.141-0.245 0.325-0.436 0.554-0.572 0.229-0.136 0.475-0.202 0.739-0.197v0c0.386 0.005 0.685 0.131 0.897 0.378 0.211 0.247 0.317 0.582 0.317 1.006v0 0.141h-2.132v-0.332h1.595l-0.091 0.12v-0.183c0-0.25-0.056-0.446-0.169-0.59-0.114-0.144-0.272-0.216-0.474-0.216v0c-0.126 0-0.246 0.038-0.361 0.113-0.113 0.076-0.204 0.189-0.274 0.34-0.07 0.15-0.106 0.338-0.106 0.564v0 0.107c0 0.367 0.094 0.657 0.282 0.868 0.188 0.212 0.433 0.318 0.735 0.318v0c0.16 0 0.306-0.031 0.438-0.093 0.131-0.061 0.258-0.166 0.381-0.316v0l0.19 0.176c-0.132 0.258-0.305 0.451-0.519 0.579-0.214 0.127-0.453 0.191-0.716 0.191zM230.112 244.559l-0.296 1.073c-0.132-0.018-0.264-0.03-0.397-0.035-0.132-0.005-0.255-0.007-0.367-0.007v0h-2.43l-0.02-0.296 0.438-0.099c0.009-0.024 0.017-0.081 0.024-0.17 0.007-0.089 0.011-0.209 0.013-0.361 0.003-0.15 0.004-0.327 0.005-0.529v0-1.228c0-0.207-0.001-0.388-0.005-0.541-0.002-0.153-0.006-0.274-0.013-0.363-0.008-0.09-0.016-0.144-0.024-0.163v0l-0.438-0.099 0.02-0.296h2.246c0.07 0 0.153-0.001 0.247-0.005 0.095-0.002 0.191-0.005 0.29-0.01 0.099-0.005 0.194-0.012 0.283-0.021v0l0.155 0.974-0.346 0.05-0.247-0.601c-0.047-0.009-0.093-0.015-0.137-0.02-0.045-0.005-0.096-0.007-0.152-0.007v0h-0.713c-0.09 0-0.171 0.001-0.245 0.003-0.073 0.003-0.14 0.009-0.201 0.017v0c0 0.029-0.001 0.084-0.004 0.166-0.002 0.083-0.004 0.182-0.006 0.297-0.003 0.116-0.004 0.237-0.004 0.364v0 1.765c0 0.114 0.001 0.222 0.004 0.326 0.002 0.103 0.004 0.193 0.006 0.269 0.003 0.075 0.004 0.129 0.004 0.162v0c0.075 0.01 0.152 0.017 0.23 0.021 0.077 0.004 0.17 0.006 0.278 0.006v0h0.587c0.108 0 0.194-0.001 0.258-0.003 0.064-0.002 0.113-0.005 0.147-0.01 0.036-0.005 0.068-0.01 0.096-0.014v0l0.374-0.679zM229.321 244.157h-0.326l-0.078-0.48c-0.028-0.005-0.072-0.01-0.133-0.015-0.062-0.005-0.135-0.007-0.22-0.007v0h-0.48c-0.07 0-0.142 0.001-0.215 0.004-0.072 0.002-0.139 0.005-0.201 0.01v0-0.416c0.062 0.005 0.129 0.007 0.201 0.007 0.073 0 0.145 0 0.215 0v0h0.48c0.085 0 0.158-0.001 0.22-0.004 0.061-0.002 0.105-0.003 0.133-0.003v0l0.078-0.488h0.326zM232.053 245.59h-1.568l-0.02-0.275 0.437-0.114c0.005-0.023 0.01-0.064 0.014-0.123 0.005-0.059 0.009-0.138 0.012-0.237 0.002-0.098 0.003-0.223 0.003-0.373v0l0.007-0.544c0-0.155-0.005-0.303-0.015-0.443-0.01-0.139-0.024-0.255-0.041-0.348v0l-0.453-0.1v-0.26l1.046-0.284 0.149 0.114-0.044 0.388 0.022 0.007c0.16-0.179 0.323-0.311 0.487-0.395 0.165-0.085 0.341-0.127 0.53-0.127v0c0.183 0 0.353 0.046 0.509 0.137 0.155 0.092 0.281 0.23 0.377 0.414 0.096 0.183 0.145 0.414 0.145 0.691v0 0.757c0 0.164 0.003 0.315 0.01 0.454 0.008 0.139 0.016 0.23 0.025 0.272v0l0.438 0.114-0.015 0.275h-1.539l-0.021-0.275 0.409-0.114c0.01-0.038 0.017-0.088 0.022-0.152 0.005-0.063 0.008-0.14 0.01-0.233 0.003-0.092 0.004-0.194 0.004-0.306v0-0.706c0-0.198-0.033-0.357-0.1-0.477-0.066-0.12-0.149-0.207-0.25-0.262-0.101-0.054-0.208-0.081-0.321-0.081v0c-0.146 0-0.28 0.034-0.402 0.102-0.122 0.068-0.229 0.164-0.318 0.287v0 1.059c0 0.198 0.003 0.365 0.01 0.501 0.008 0.136 0.016 0.225 0.025 0.268v0l0.438 0.114zM235.917 247.2v0c-0.451 0-0.808-0.07-1.069-0.211-0.261-0.142-0.392-0.328-0.392-0.558v0c0-0.165 0.068-0.314 0.204-0.449 0.137-0.134 0.349-0.262 0.636-0.385v0l0.282 0.05c-0.142 0.09-0.253 0.191-0.333 0.303-0.08 0.113-0.12 0.235-0.12 0.368v0c0 0.175 0.074 0.311 0.223 0.409 0.148 0.099 0.352 0.149 0.612 0.149v0c0.291 0 0.529-0.063 0.713-0.188 0.183-0.124 0.275-0.283 0.275-0.476v0c0-0.147-0.053-0.256-0.159-0.328-0.106-0.073-0.286-0.12-0.54-0.139v0l-0.791-0.064-0.093-0.034c-0.193 0-0.351-0.045-0.475-0.135-0.125-0.089-0.188-0.204-0.188-0.346v0c0-0.132 0.065-0.26 0.195-0.384 0.129-0.124 0.311-0.231 0.547-0.322v0l0.098 0.141c-0.08 0.052-0.14 0.101-0.179 0.146-0.041 0.044-0.061 0.088-0.061 0.13v0c0 0.066 0.026 0.119 0.078 0.159 0.052 0.04 0.125 0.064 0.22 0.074v0l0.96 0.091c0.338 0.034 0.593 0.12 0.762 0.259 0.17 0.139 0.255 0.333 0.255 0.583v0c0 0.211-0.073 0.405-0.22 0.581-0.146 0.176-0.343 0.317-0.593 0.421-0.25 0.103-0.532 0.155-0.847 0.155zM235.966 244.728v0c-0.258 0-0.488-0.046-0.689-0.137-0.2-0.092-0.356-0.219-0.468-0.382-0.114-0.162-0.171-0.349-0.171-0.561v0c0-0.226 0.059-0.426 0.178-0.601 0.118-0.174 0.276-0.312 0.476-0.416 0.201-0.103 0.428-0.155 0.681-0.155v0c0.25 0 0.472 0.049 0.668 0.148 0.195 0.099 0.349 0.234 0.463 0.403 0.113 0.169 0.169 0.362 0.169 0.579v0c0 0.217-0.056 0.41-0.169 0.578-0.114 0.17-0.27 0.303-0.467 0.399-0.198 0.096-0.421 0.145-0.671 0.145zM236.016 244.404v0c0.174 0 0.312-0.068 0.417-0.205 0.103-0.137 0.155-0.321 0.155-0.551v0c0-0.258-0.058-0.465-0.174-0.621-0.115-0.156-0.264-0.234-0.448-0.234v0c-0.178 0-0.323 0.073-0.434 0.22-0.111 0.146-0.166 0.336-0.167 0.571v0c0 0.245 0.059 0.443 0.177 0.593 0.119 0.151 0.277 0.227 0.474 0.227zM237.69 242.547v0.486l-0.884-0.07-0.268-0.296zM239.611 245.59h-1.646l-0.021-0.282 0.473-0.107c0.005-0.018 0.01-0.054 0.015-0.108 0.004-0.054 0.007-0.132 0.01-0.233 0.002-0.101 0.003-0.232 0.003-0.392v0l0.007-0.502c0-0.175-0.005-0.334-0.014-0.478-0.009-0.144-0.023-0.262-0.042-0.355v0l-0.473-0.1v-0.26l1.102-0.284 0.133 0.107c-0.013 0.146-0.024 0.291-0.032 0.437-0.007 0.147-0.01 0.316-0.01 0.509v0 0.89c0 0.193 0.003 0.36 0.01 0.501 0.008 0.141 0.018 0.23 0.032 0.268v0l0.474 0.107zM238.792 241.763v0c-0.142 0-0.258-0.045-0.35-0.135-0.092-0.09-0.137-0.201-0.137-0.332v0c0-0.127 0.046-0.237 0.137-0.329 0.092-0.092 0.208-0.137 0.35-0.137v0c0.141 0 0.255 0.046 0.341 0.137 0.088 0.092 0.132 0.201 0.132 0.329v0c0 0.132-0.044 0.243-0.132 0.332-0.087 0.09-0.201 0.135-0.341 0.135zM241.517 245.59h-1.568l-0.02-0.275 0.437-0.114c0.005-0.023 0.01-0.064 0.014-0.123 0.005-0.059 0.009-0.138 0.012-0.237 0.002-0.098 0.003-0.223 0.003-0.373v0l0.007-0.544c0-0.155-0.005-0.303-0.015-0.443-0.01-0.139-0.024-0.255-0.042-0.348v0l-0.452-0.1v-0.26l1.045-0.284 0.148 0.114-0.042 0.388 0.022 0.007c0.16-0.179 0.323-0.311 0.487-0.395 0.165-0.085 0.341-0.127 0.53-0.127v0c0.183 0 0.353 0.046 0.509 0.137 0.155 0.092 0.281 0.23 0.377 0.414 0.096 0.183 0.145 0.414 0.145 0.691v0 0.757c0 0.164 0.003 0.315 0.01 0.454 0.007 0.139 0.015 0.23 0.025 0.272v0l0.438 0.114-0.015 0.275h-1.539l-0.021-0.275 0.409-0.114c0.01-0.038 0.017-0.088 0.022-0.152 0.005-0.063 0.008-0.14 0.01-0.233 0.003-0.092 0.004-0.194 0.004-0.306v0-0.706c0-0.198-0.033-0.357-0.1-0.477-0.066-0.12-0.149-0.207-0.25-0.262-0.101-0.054-0.208-0.081-0.321-0.081v0c-0.146 0-0.28 0.034-0.402 0.102-0.122 0.068-0.229 0.164-0.318 0.287v0 1.059c0 0.198 0.003 0.365 0.01 0.501 0.007 0.136 0.015 0.225 0.024 0.268v0l0.439 0.114zM245.5 245.647v0c-0.283 0-0.537-0.064-0.762-0.191-0.226-0.127-0.405-0.306-0.536-0.537-0.132-0.23-0.198-0.499-0.199-0.806v0c0-0.334 0.071-0.623 0.213-0.868 0.141-0.245 0.325-0.436 0.554-0.572 0.229-0.136 0.474-0.202 0.738-0.197v0c0.387 0.005 0.686 0.131 0.896 0.378 0.212 0.247 0.318 0.582 0.319 1.006v0 0.141h-2.134v-0.332h1.597l-0.092 0.12v-0.183c0-0.25-0.056-0.446-0.17-0.59-0.113-0.144-0.27-0.216-0.473-0.216v0c-0.127 0-0.247 0.038-0.36 0.113-0.113 0.076-0.204 0.189-0.275 0.34-0.071 0.15-0.107 0.338-0.107 0.564v0 0.107c0 0.367 0.095 0.657 0.284 0.868 0.188 0.212 0.432 0.318 0.733 0.318v0c0.16 0 0.306-0.031 0.438-0.093 0.132-0.061 0.259-0.166 0.382-0.316v0l0.191 0.176c-0.132 0.258-0.305 0.451-0.519 0.579-0.214 0.127-0.453 0.191-0.718 0.191zM248.736 245.647v0c-0.283 0-0.537-0.064-0.764-0.191-0.226-0.127-0.405-0.306-0.536-0.537-0.132-0.23-0.198-0.499-0.198-0.806v0c0-0.334 0.071-0.623 0.212-0.868 0.141-0.245 0.325-0.436 0.554-0.572 0.229-0.136 0.474-0.202 0.738-0.197v0c0.387 0.005 0.686 0.131 0.898 0.378 0.211 0.247 0.317 0.582 0.317 1.006v0 0.141h-2.132v-0.332h1.595l-0.091 0.12v-0.183c0-0.25-0.056-0.446-0.169-0.59-0.114-0.144-0.272-0.216-0.475-0.216v0c-0.126 0-0.246 0.038-0.36 0.113-0.113 0.076-0.204 0.189-0.274 0.34-0.07 0.15-0.106 0.338-0.106 0.564v0 0.107c0 0.367 0.094 0.657 0.282 0.868 0.188 0.212 0.433 0.318 0.735 0.318v0c0.16 0 0.306-0.031 0.438-0.093 0.131-0.061 0.258-0.166 0.38-0.316v0l0.191 0.176c-0.132 0.258-0.305 0.451-0.519 0.579-0.214 0.127-0.453 0.191-0.716 0.191zM252.154 245.59h-1.759l-0.022-0.275 0.439-0.114c0.005-0.018 0.01-0.058 0.014-0.12 0.005-0.061 0.01-0.143 0.015-0.246 0.005-0.104 0.007-0.227 0.007-0.367v0-0.544c0-0.155-0.005-0.303-0.015-0.443-0.01-0.139-0.024-0.255-0.043-0.348v0l-0.451-0.1v-0.26l1.038-0.284 0.128 0.107-0.029 0.579 0.021 0.007c0.141-0.268 0.282-0.449 0.424-0.544 0.141-0.095 0.28-0.142 0.417-0.142v0c0.118 0 0.216 0.029 0.296 0.088 0.08 0.059 0.12 0.149 0.12 0.272v0c0 0.122-0.043 0.217-0.13 0.284-0.088 0.066-0.193 0.098-0.315 0.098v0c-0.094 0-0.182-0.018-0.265-0.053-0.082-0.035-0.163-0.092-0.243-0.172v0l0.14 0.034c-0.075 0.057-0.151 0.132-0.228 0.226-0.078 0.095-0.148 0.208-0.208 0.34v0l0.007 0.628c0.004 0.137 0.008 0.27 0.013 0.399 0.005 0.13 0.01 0.244 0.014 0.343 0.005 0.099 0.01 0.172 0.015 0.218v0l0.614 0.1zM253.997 244.206h-0.311l-0.297-2.861c-0.013-0.141-0.003-0.263 0.032-0.366 0.036-0.104 0.089-0.183 0.159-0.237 0.07-0.054 0.155-0.081 0.255-0.081v0c0.103 0 0.191 0.027 0.264 0.081 0.073 0.054 0.126 0.133 0.16 0.237 0.033 0.103 0.042 0.225 0.027 0.366v0zM253.835 245.661v0c-0.095 0-0.18-0.021-0.258-0.064-0.078-0.042-0.139-0.103-0.183-0.18-0.045-0.077-0.068-0.163-0.068-0.258v0c0-0.095 0.023-0.179 0.068-0.254 0.044-0.075 0.106-0.135 0.183-0.18 0.077-0.045 0.163-0.068 0.258-0.068v0c0.098 0 0.187 0.023 0.264 0.068 0.078 0.044 0.14 0.104 0.187 0.18 0.047 0.075 0.071 0.16 0.071 0.254v0c0 0.142-0.049 0.261-0.148 0.357-0.099 0.096-0.224 0.145-0.374 0.145z" fill="#ffffff" fill-rule="nonzero" stroke="none" stroke-width="1" stroke-linecap="butt" stroke-linejoin="miter" stroke-miterlimit="10" stroke-dasharray="" stroke-dashoffset="0" font-family="none" font-weight="none" font-size="none" text-anchor="none" style="mix-blend-mode: normal" data-fill-palette-color="secondary"></path></g></g><g transform="matrix(1,0,0,1,12.594201736037789,41.74315307617188)"><svg viewBox="0 0 135.8597837837838 173.04" height="173.04" width="135.8597837837838"><g><svg viewBox="0 0 135.8597837837838 173.04" height="173.04" width="135.8597837837838"><g><svg viewBox="0 0 135.8597837837838 173.04" height="173.04" width="135.8597837837838"><g><svg viewBox="0 0 135.8597837837838 173.04" height="173.04" width="135.8597837837838"><g id="textblocktransform"><svg viewBox="0 0 135.8597837837838 173.04" height="173.04" width="135.8597837837838" id="textblock"><g><svg viewBox="0 0 135.8597837837838 173.04" height="173.04" width="135.8597837837838"><g transform="matrix(1,0,0,1,0,0)"><svg width="135.8597837837838" viewBox="1.3200000524520874 -35.790000915527344 28.3700008392334 36.130001068115234" height="173.04" data-palette-color="#ffffff"><path d="M29.69-23.49L29.69-23.49Q29.69-21.12 28.98-19.29 28.27-17.46 27.04-16.09 25.81-14.72 24.15-13.77 22.49-12.82 20.59-12.22 18.7-11.62 16.67-11.34 14.65-11.06 12.7-11.04L12.7-11.04 12.7 0.34 1.32 0.34Q1.32-5.25 1.34-10.79 1.37-16.33 1.42-21.97L1.42-21.97Q1.46-24.95 1.44-27.93 1.42-30.91 1.56-33.94L1.56-33.94Q4.69-34.86 7.81-35.33 10.94-35.79 14.26-35.79L14.26-35.79Q16.14-35.79 18.02-35.49 19.9-35.18 21.62-34.52 23.34-33.86 24.82-32.87 26.29-31.88 27.37-30.52 28.44-29.15 29.06-27.4 29.69-25.66 29.69-23.49ZM18.85-22.66L18.85-22.66Q18.85-24.24 17.88-25.13 16.92-26.03 15.38-26.03L15.38-26.03Q14.87-26.03 14.32-25.94 13.77-25.85 13.28-25.73L13.28-25.73 12.99-18.6Q13.33-18.55 13.65-18.55 13.96-18.55 14.31-18.55L14.31-18.55Q15.19-18.55 16-18.85 16.82-19.14 17.46-19.69 18.09-20.24 18.47-20.98 18.85-21.73 18.85-22.66Z" opacity="1" transform="matrix(1,0,0,1,0,0)" fill="#ffffff" class="wordmark-text-0" data-fill-palette-color="primary" id="text-0"></path></svg></g></svg></g></svg></g></svg></g></svg></g></svg></g></svg></g></svg></g><defs></defs></svg><rect width="161.04818725585938" height="256.52630615234375" fill="none" stroke="none" visibility="hidden"></rect></g></svg></g></svg>