<svg xmlns="http://www.w3.org/2000/svg" version="1.1" xmlns:xlink="http://www.w3.org/1999/xlink" xmlns:svgjs="http://svgjs.dev/svgjs" width="1000" height="999" viewBox="0 0 1000 999"><g transform="matrix(1,0,0,1,-0.215743440233382,-0.21552769679306039)"><svg viewBox="0 0 343 343" data-background-color="#111111" preserveAspectRatio="xMidYMid meet" height="999" width="1000" xmlns="http://www.w3.org/2000/svg" xmlns:xlink="http://www.w3.org/1999/xlink"><g id="tight-bounds" transform="matrix(1,0,0,1,0.0740000000000407,0.07400000000001228)"><svg viewBox="0 0 342.85155851775386 342.85155851775386" height="342.85155851775386" width="342.85155851775386"><g><svg></svg></g><g><svg viewBox="0 0 342.85155851775386 342.85155851775386" height="342.85155851775386" width="342.85155851775386"><g><path d="M0 171.426c0-94.676 76.75-171.426 171.426-171.426 94.676 0 171.426 76.75 171.426 171.426 0 94.676-76.75 171.426-171.426 171.426-94.676 0-171.426-76.75-171.426-171.426zM171.426 332.235c88.813 0 160.81-71.997 160.809-160.809 0-88.813-71.997-160.81-160.809-160.81-88.813 0-160.81 71.997-160.81 160.81 0 88.813 71.997 160.81 160.81 160.809z" data-fill-palette-color="tertiary" fill="#ffffff" stroke="transparent"></path><ellipse rx="164.56874808852186" ry="164.56874808852186" cx="171.42577925887693" cy="171.42577925887693" fill="#ffffff" stroke="transparent" stroke-width="0" fill-opacity="1" data-fill-palette-color="tertiary"></ellipse></g><g transform="matrix(1,0,0,1,64.84655864529837,112.5654601823444)"><svg viewBox="0 0 213.1584412271571 117.72063815306505" height="117.72063815306505" width="213.1584412271571"><g><svg viewBox="0 0 213.1584412271571 117.72063815306505" height="117.72063815306505" width="213.1584412271571"><g><svg viewBox="0 0 213.1584412271571 117.72063815306505" height="117.72063815306505" width="213.1584412271571"><g><svg viewBox="0 0 213.1584412271571 117.72063815306505" height="117.72063815306505" width="213.1584412271571"><g id="textblocktransform"><svg viewBox="0 0 213.1584412271571 117.72063815306505" height="117.72063815306505" width="213.1584412271571" id="textblock"><g><svg viewBox="0 0 213.1584412271571 117.72063815306505" height="117.72063815306505" width="213.1584412271571"><g transform="matrix(1,0,0,1,0,0)"><svg width="213.1584412271571" viewBox="3.930000066757202 -35 63.37000274658203 35" height="117.72063815306505" data-palette-color="#111111"><path d="M9.53 0L3.93 0 3.93-35 15.88-35Q19.6-35 22.33-33.84 25.05-32.68 26.51-30.18 27.98-27.68 27.98-23.68L27.98-23.68Q27.98-19.68 26.51-17.14 25.05-14.6 22.34-13.4 19.63-12.2 15.93-12.2L15.93-12.2 9.53-12.2 9.53 0ZM9.53-30.28L9.53-16.93 15.2-16.93Q18.8-16.93 20.6-18.55 22.4-20.18 22.4-23.6L22.4-23.6Q22.4-27.05 20.65-28.66 18.9-30.28 15.15-30.28L15.15-30.28 9.53-30.28ZM36.6 0L30.9 0 35.65-35 40.22-35 49.12-18.25 57.97-35 62.57-35 67.3 0 61.6 0 58.15-27.6 59.6-27.33 49.17-7.9 38.6-27.3 40.05-27.58 36.6 0Z" opacity="1" transform="matrix(1,0,0,1,0,0)" fill="#111111" class="wordmark-text-0" data-fill-palette-color="quaternary" id="text-0"></path></svg></g></svg></g></svg></g></svg></g><g></g></svg></g></svg></g></svg></g></svg></g><defs></defs></svg><rect width="342.85155851775386" height="342.85155851775386" fill="none" stroke="none" visibility="hidden"></rect></g></svg></g></svg>